<svg width="20" height="20" viewBox="0 0 20 20" fill="none" xmlns="http://www.w3.org/2000/svg">
<path d="M5.45453 9.30441C5.45453 9.05316 5.25122 8.84985 4.99997 8.84985C4.74872 8.84985 4.54541 9.05316 4.54541 9.30441C4.54541 10.498 5.862 12.1369 6.01204 12.3202C6.10217 12.4294 6.23266 12.4862 6.36403 12.4862C6.46524 12.4862 6.56734 12.4525 6.6521 12.3832C6.84608 12.2239 6.87403 11.9376 6.71513 11.7431C6.2278 11.1492 5.45453 9.96224 5.45453 9.30441Z" fill="#FF9900"/>
<path d="M15 8.84985C14.7488 8.84985 14.5455 9.05316 14.5455 9.30441C14.5455 9.96002 13.7722 11.1483 13.2848 11.7436C13.1259 11.9376 13.1543 12.2239 13.3483 12.3832C13.4327 12.4525 13.5348 12.4862 13.6364 12.4862C13.7678 12.4862 13.8978 12.4294 13.988 12.3202C14.138 12.1369 15.4546 10.4981 15.4546 9.30441C15.4546 9.05316 15.2513 8.84985 15 8.84985Z" fill="#FF9900"/>
<path d="M9.99997 8.84985C9.74872 8.84985 9.54541 9.05316 9.54541 9.30441V12.0317C9.54541 12.2829 9.74872 12.4862 9.99997 12.4862C10.2512 12.4862 10.4545 12.2829 10.4545 12.0317V9.30441C10.4545 9.05316 10.2512 8.84985 9.99997 8.84985Z" fill="#FF9900"/>
<path d="M15 1.57723C14.7246 1.57723 14.4367 1.61367 14.1378 1.66919C13.1366 0.502173 11.6547 -0.240967 10 -0.240967C8.34538 -0.240967 6.86336 0.502173 5.86228 1.66915C5.5633 1.61367 5.27544 1.57719 5.00003 1.57719C2.24297 1.57723 0 3.8202 0 6.57722C0 8.46641 1.06534 10.1838 2.73793 11.033L2.72906 17.9022C2.72864 18.398 2.92125 18.8641 3.27149 19.2148C3.62216 19.566 4.0878 19.759 4.58365 19.759H15.4182C16.4409 19.759 17.2728 18.9272 17.2728 17.9044V11.0263C18.9391 10.175 20 8.46019 20 6.57722C20 3.8202 17.757 1.57723 15 1.57723ZM16.3636 17.9045C16.3636 18.4256 15.9393 18.85 15.4181 18.85H4.58361C4.33104 18.85 4.09355 18.7514 3.91466 18.5726C3.7362 18.3937 3.63767 18.1562 3.6381 17.9032L3.64049 16.1227H16.3636V17.9045ZM16.6451 10.3188C16.6211 10.3285 16.5984 10.3401 16.5771 10.3539C16.5199 10.3894 16.4728 10.4364 16.4378 10.4906C16.4023 10.5443 16.3783 10.6064 16.3685 10.673C16.3645 10.6983 16.3632 10.7236 16.3636 10.7494V15.2136H3.64164L3.64747 10.7555C3.6479 10.7307 3.64658 10.7054 3.64304 10.681C3.63328 10.6121 3.60797 10.5482 3.57111 10.4927C3.53647 10.4408 3.49121 10.3955 3.43615 10.3609C3.41352 10.3467 3.38953 10.3343 3.36469 10.324C1.87279 9.67161 0.909077 8.20229 0.909077 6.57722C0.909077 4.32134 2.74415 2.48631 4.99999 2.48631C5.08816 2.48631 5.18122 2.49696 5.27255 2.50416C4.81266 3.30342 4.54543 4.22703 4.54543 5.21358C4.54543 5.46483 4.74874 5.66814 4.99999 5.66814C5.25124 5.66814 5.45455 5.46483 5.45455 5.21358C5.45455 2.70735 7.49378 0.668111 10 0.668111C12.5063 0.668111 14.5454 2.70735 14.5454 5.21358C14.5454 5.46483 14.7488 5.66814 15 5.66814C15.2513 5.66814 15.4546 5.46483 15.4546 5.21358C15.4546 4.22703 15.1873 3.30347 14.7275 2.50416C14.8188 2.49696 14.9118 2.48631 15 2.48631C17.2559 2.48631 19.0909 4.32138 19.0909 6.57722C19.0909 8.19654 18.1312 9.66403 16.6451 10.3188Z" fill="#FF9900"/>
</svg>
