<svg width="20" height="20" viewBox="0 0 20 20" fill="none" xmlns="http://www.w3.org/2000/svg">
<path d="M15.054 4.01639C15.2158 4.01639 15.3469 3.88525 15.3469 3.72342V3.32959C15.3469 3.16775 15.2158 3.03662 15.054 3.03662C14.8921 3.03662 14.761 3.16775 14.761 3.32959V3.72342C14.761 3.88522 14.8922 4.01639 15.054 4.01639Z" fill="#AEAEAE"/>
<path d="M18.2415 6.6178C18.0796 6.6178 17.9485 6.74893 17.9485 6.91077C17.9485 7.0726 18.0796 7.20374 18.2415 7.20374H18.6352C18.7971 7.20374 18.9282 7.0726 18.9282 6.91077C18.9282 6.74893 18.7971 6.6178 18.6352 6.6178H18.2415Z" fill="#AEAEAE"/>
<path d="M11.4727 6.6178C11.3108 6.6178 11.1797 6.74893 11.1797 6.91077C11.1797 7.0726 11.3108 7.20374 11.4727 7.20374H11.8665C12.0283 7.20374 12.1595 7.0726 12.1595 6.91077C12.1595 6.74893 12.0283 6.6178 11.8665 6.6178H11.4727Z" fill="#AEAEAE"/>
<path d="M16.3389 15.976C15.8186 15.976 15.3953 16.3993 15.3953 16.9195C15.3953 17.4398 15.8186 17.8631 16.3389 17.8631C16.8592 17.8631 17.2825 17.4398 17.2825 16.9195C17.2825 16.3993 16.8592 15.976 16.3389 15.976ZM16.3389 17.2772C16.1416 17.2772 15.9812 17.1168 15.9812 16.9195C15.9812 16.7223 16.1416 16.5619 16.3389 16.5619C16.5361 16.5619 16.6966 16.7223 16.6966 16.9195C16.6966 17.1168 16.5361 17.2772 16.3389 17.2772Z" fill="#AEAEAE"/>
<path d="M5.6416 16.9195C5.6416 17.4398 6.06492 17.8631 6.58523 17.8631C7.10555 17.8631 7.52883 17.4398 7.52883 16.9195C7.52883 16.3993 7.10555 15.976 6.58523 15.976C6.06492 15.976 5.6416 16.3992 5.6416 16.9195ZM6.94289 16.9195C6.94289 17.1168 6.78246 17.2772 6.58523 17.2772C6.38801 17.2772 6.22754 17.1168 6.22754 16.9195C6.22754 16.7223 6.38801 16.5619 6.58523 16.5619C6.78246 16.5619 6.94289 16.7223 6.94289 16.9195Z" fill="#AEAEAE"/>
<path d="M8.57424 12.4231C8.90498 12.1012 8.9431 11.5412 8.5674 11.1756L7.34967 9.99025C6.91037 9.56283 6.20517 9.57228 5.77763 10.0115L5.54959 10.2458C5.43674 10.3618 5.43924 10.5472 5.55517 10.6601L6.729 11.8026L5.55517 12.9452C5.49951 12.9993 5.46763 13.0734 5.46658 13.1511C5.46553 13.2288 5.49541 13.3037 5.54959 13.3594L5.77763 13.5937C6.20658 14.0344 6.91025 14.0427 7.34967 13.6149L8.57424 12.4231ZM6.19752 13.1851L6.17381 13.1608L7.35338 12.0126C7.41002 11.9575 7.44201 11.8817 7.44201 11.8027C7.44201 11.7236 7.41006 11.6479 7.35338 11.5927L6.17381 10.4445L6.19752 10.4202C6.39978 10.2124 6.73326 10.2079 6.94099 10.4101L8.15873 11.5955C8.28869 11.722 8.27131 11.9002 8.16557 12.0032L6.94099 13.1951C6.73424 13.3963 6.40142 13.3946 6.19752 13.1851Z" fill="#AEAEAE"/>
<path d="M14.761 6.91088C14.761 7.07272 14.8921 7.20385 15.054 7.20385H16.0503C16.2121 7.20385 16.3433 7.07272 16.3433 6.91088C16.3433 6.74904 16.2121 6.61791 16.0503 6.61791H15.3469V4.79346C15.3469 4.63162 15.2158 4.50049 15.054 4.50049C14.8921 4.50049 14.761 4.63162 14.761 4.79346V6.91088Z" fill="#AEAEAE"/>
<path d="M5.00476 4.40698H10.0493C10.2112 4.40698 10.3423 4.27585 10.3423 4.11401C10.3423 3.95218 10.2112 3.82104 10.0493 3.82104H5.00476C4.84296 3.82104 4.71179 3.95218 4.71179 4.11401C4.71179 4.27585 4.84296 4.40698 5.00476 4.40698Z" fill="#AEAEAE"/>
<path d="M3.78186 5.92065H9.01827C9.18006 5.92065 9.31123 5.78952 9.31123 5.62769C9.31123 5.46585 9.18006 5.33472 9.01827 5.33472H3.78186C3.62006 5.33472 3.48889 5.46585 3.48889 5.62769C3.48889 5.78952 3.62006 5.92065 3.78186 5.92065Z" fill="#AEAEAE"/>
<path d="M6.77771 6.68445C6.61591 6.68445 6.48474 6.81558 6.48474 6.97742C6.48474 7.13925 6.61591 7.27039 6.77771 7.27039H9.38337C9.54517 7.27039 9.67634 7.13925 9.67634 6.97742C9.67634 6.81558 9.54517 6.68445 9.38337 6.68445H6.77771Z" fill="#AEAEAE"/>
<path d="M4.30762 6.68445C4.14582 6.68445 4.01465 6.81558 4.01465 6.97742C4.01465 7.13925 4.14582 7.27039 4.30762 7.27039H5.60809C5.76989 7.27039 5.90106 7.13925 5.90106 6.97742C5.90106 6.81558 5.76989 6.68445 5.60809 6.68445H4.30762Z" fill="#AEAEAE"/>
<path d="M0.292969 11.3049H1.36445C1.52625 11.3049 1.65742 11.1738 1.65742 11.012C1.65742 10.8501 1.52625 10.719 1.36445 10.719H0.292969C0.131172 10.719 0 10.8501 0 11.012C0 11.1738 0.131172 11.3049 0.292969 11.3049Z" fill="#AEAEAE"/>
<path d="M1.07422 13.8855H0.292969C0.131172 13.8855 0 14.0166 0 14.1785C0 14.3403 0.131172 14.4714 0.292969 14.4714H1.07422C1.23602 14.4714 1.36719 14.3403 1.36719 14.1785C1.36719 14.0166 1.23602 13.8855 1.07422 13.8855Z" fill="#AEAEAE"/>
<path d="M4.5208 11.4047H3.47595C3.31416 11.4047 3.18298 11.5358 3.18298 11.6976C3.18298 11.8595 3.31416 11.9906 3.47595 11.9906H4.5208C4.68259 11.9906 4.81376 11.8595 4.81376 11.6976C4.81376 11.5358 4.68259 11.4047 4.5208 11.4047Z" fill="#AEAEAE"/>
<path d="M17.8129 11.0158C19.1703 10.1013 20 8.56017 20 6.91079C20 6.12689 19.8217 5.37677 19.4699 4.68142C19.3969 4.53704 19.2206 4.47919 19.0763 4.5522C18.9319 4.62521 18.874 4.80149 18.9471 4.94583C19.2569 5.55849 19.4141 6.21962 19.4141 6.91079C19.4141 8.39415 18.6526 9.7781 17.4126 10.5777L15.7069 8.71126C15.5088 8.49439 15.2266 8.37005 14.9329 8.37005H10.9444C10.7782 7.90255 10.6938 7.41259 10.6938 6.91079C10.6938 4.50661 12.6498 2.55071 15.0539 2.55071C16.3011 2.55071 17.4911 3.08681 18.3189 4.02153C18.4261 4.14263 18.6112 4.15395 18.7325 4.04661C18.8536 3.93935 18.8648 3.75419 18.7575 3.63306C18.3271 3.14704 17.8102 2.75642 17.2404 2.47544V1.48321C17.2404 1.12267 16.9471 0.829346 16.5866 0.829346H13.5214C13.1608 0.829346 12.8675 1.12267 12.8675 1.48321V2.47517C11.2339 3.28368 10.1079 4.96806 10.1079 6.91079C10.1079 7.41017 10.1818 7.89923 10.3273 8.37005H2.85656C2.48285 8.37005 2.17586 8.65896 2.1459 9.02513H1.07422C0.912422 9.02513 0.78125 9.15626 0.78125 9.3181C0.78125 9.47993 0.912422 9.61106 1.07422 9.61106H2.14293V12.4428H0.292969C0.131172 12.4428 0 12.5739 0 12.7358C0 12.8976 0.131172 13.0287 0.292969 13.0287H2.14293V13.8856C1.98242 13.8871 1.8527 14.0176 1.8527 14.1784C1.8527 14.3393 1.98238 14.4698 2.14293 14.4713V16.5436C2.14293 16.8512 2.39316 17.1014 2.7007 17.1014H3.48895V17.3053H2.57488C2.41309 17.3053 2.28191 17.4365 2.28191 17.5983C2.28191 17.7601 2.41309 17.8913 2.57488 17.8913H3.78191C3.94371 17.8913 4.07488 17.7601 4.07488 17.5983V17.1014H4.34219C4.43516 18.2578 5.40527 19.1705 6.5852 19.1705C6.97457 19.1705 7.35894 19.0689 7.69672 18.8767C7.83734 18.7967 7.88645 18.6178 7.80645 18.4772C7.72645 18.3365 7.54762 18.2875 7.40691 18.3674C7.1573 18.5095 6.87312 18.5846 6.5852 18.5846C5.66711 18.5846 4.92016 17.8377 4.92016 16.9195C4.92016 16.0014 5.66711 15.2545 6.5852 15.2545C7.50328 15.2545 8.25023 16.0014 8.25023 16.9195C8.25023 17.1699 8.19598 17.4106 8.08895 17.6351C8.0193 17.7811 8.08129 17.956 8.2273 18.0256C8.3734 18.0952 8.5482 18.0333 8.61785 17.8872C8.73656 17.6383 8.80645 17.3745 8.82812 17.1014H14.0959C14.1888 18.2578 15.1589 19.1705 16.3389 19.1705C17.5188 19.1705 18.4889 18.2578 18.5819 17.1014H19.185C19.6344 17.1014 20 16.7358 20 16.2863V13.8149C20 13.5531 19.9028 13.3025 19.7262 13.1093L17.8129 11.0158ZM13.4534 1.48321C13.4534 1.44575 13.4839 1.41528 13.5214 1.41528H16.5866C16.624 1.41528 16.6545 1.44575 16.6545 1.48321V2.23188C16.1443 2.05716 15.6041 1.96481 15.0539 1.96481C14.4941 1.96481 13.9557 2.05849 13.4534 2.23071V1.48321H13.4534ZM15.2744 9.10657L18.3232 12.4428H16.1378C15.976 12.4428 15.8448 12.5739 15.8448 12.7358C15.8448 12.8976 15.976 13.0287 16.1378 13.0287H18.8587L19.2937 13.5047C19.471 13.6988 19.3965 13.9093 19.4141 14.1328H19.1882C19.0264 14.1328 18.8952 14.264 18.8952 14.4258C18.8952 14.5876 19.0264 14.7188 19.1882 14.7188H19.4141V15.1523H17.7304C17.3471 14.8498 16.8639 14.6686 16.3389 14.6686C15.8139 14.6686 15.3307 14.8498 14.9474 15.1523H11.7553V8.95603H13.0189V12.4391C13.0189 12.7642 13.2834 13.0288 13.6085 13.0288H14.9666C15.1284 13.0288 15.2595 12.8976 15.2595 12.7358C15.2595 12.574 15.1284 12.4428 14.9666 12.4428H13.6085C13.6064 12.4428 13.6048 12.4411 13.6048 12.4391V8.95603H14.933C15.0625 8.95603 15.187 9.01091 15.2744 9.10657ZM14.1249 16.5155H11.7552V15.7382H14.4239C14.2789 15.9724 14.176 16.235 14.1249 16.5155ZM8.50012 15.7382H11.1693V16.5155H8.7991C8.74801 16.235 8.64512 15.9724 8.50012 15.7382ZM2.72887 15.7382H4.6702C4.5252 15.9724 4.4223 16.235 4.37121 16.5155H2.72887V15.7382ZM5.19363 15.1523H2.72887V14.4715H3.9984C4.1602 14.4715 4.29137 14.3403 4.29137 14.1785C4.29137 14.0167 4.1602 13.8855 3.9984 13.8855H2.72887V13.0287H3.9984C4.1602 13.0287 4.29137 12.8976 4.29137 12.7358C4.29137 12.5739 4.1602 12.4428 3.9984 12.4428H2.72887V9.08372C2.72887 9.01329 2.78613 8.95599 2.85656 8.95599H11.1693V15.1522H7.97672C7.59344 14.8498 7.1102 14.6686 6.5852 14.6686C6.06019 14.6686 5.57695 14.8498 5.19363 15.1523ZM16.3389 18.5847C15.4207 18.5847 14.6738 17.8377 14.6738 16.9196C14.6738 16.0015 15.4207 15.2546 16.3389 15.2546C17.257 15.2546 18.0039 16.0015 18.0039 16.9196C18.0039 17.8377 17.257 18.5847 16.3389 18.5847ZM19.1849 16.5155H18.5528C18.5017 16.235 18.3988 15.9724 18.2538 15.7382H19.4141V16.2864C19.4141 16.4127 19.3113 16.5155 19.1849 16.5155Z" fill="#AEAEAE"/>
</svg>
